<svg xmlns="http://www.w3.org/2000/svg" width="23.805" height="23.805" viewBox="0 0 23.805 23.805">
  <path id="ic_shopping_cart_24px" d="M8.142,21.044a2.381,2.381,0,1,0,2.381,2.381A2.377,2.377,0,0,0,8.142,21.044ZM1,2V4.381H3.381l4.285,9.034L6.059,16.331a2.3,2.3,0,0,0-.3,1.143,2.388,2.388,0,0,0,2.381,2.381H22.425V17.473H8.641a.3.3,0,0,1-.3-.3l.036-.143,1.071-1.94h8.867A2.369,2.369,0,0,0,20.4,13.867l4.261-7.725a1.163,1.163,0,0,0,.143-.571,1.194,1.194,0,0,0-1.19-1.19H6.011L4.892,2H1ZM20.044,21.044a2.381,2.381,0,1,0,2.381,2.381A2.377,2.377,0,0,0,20.044,21.044Z" transform="translate(-1 -2)" fill="#fff"/>
</svg>
